<mxfile host="" modified="2020-06-04T11:53:09.365Z" agent="5.0 (X11; Linux x86_64) AppleWebKit/537.36 (KHTML, like Gecko) code-oss/1.45.1 Chrome/78.0.3904.130 Electron/7.1.14 Safari/537.36" etag="yEgVN8hoJzWcJuKtXTq_" version="13.1.3">
    <diagram id="gc8rO6NBskWvziaDywRs" name="Page-1">
        <mxGraphModel dx="948" dy="530" grid="1" gridSize="10" guides="1" tooltips="1" connect="1" arrows="1" fold="1" page="1" pageScale="1" pageWidth="827" pageHeight="1169" math="0" shadow="0">
            <root>
                <mxCell id="0"/>
                <mxCell id="1" parent="0"/>
                <mxCell id="XBtnYQ4Ljbl5P8EdUtOO-1" value="&lt;div&gt;IDLE&lt;/div&gt;" style="whiteSpace=wrap;html=1;aspect=fixed;" parent="1" vertex="1">
                    <mxGeometry x="270" y="220" width="80" height="80" as="geometry"/>
                </mxCell>
                <mxCell id="XBtnYQ4Ljbl5P8EdUtOO-2" value="FOLLOW" style="whiteSpace=wrap;html=1;aspect=fixed;" parent="1" vertex="1">
                    <mxGeometry x="200" y="520" width="80" height="80" as="geometry"/>
                </mxCell>
                <mxCell id="XBtnYQ4Ljbl5P8EdUtOO-4" value="FLEE" style="whiteSpace=wrap;html=1;aspect=fixed;" parent="1" vertex="1">
                    <mxGeometry x="510" y="340" width="80" height="80" as="geometry"/>
                </mxCell>
                <mxCell id="XBtnYQ4Ljbl5P8EdUtOO-6" value="" style="endArrow=classic;html=1;exitX=0;exitY=0.5;exitDx=0;exitDy=0;entryX=0.5;entryY=0;entryDx=0;entryDy=0;" parent="1" source="XBtnYQ4Ljbl5P8EdUtOO-1" target="XBtnYQ4Ljbl5P8EdUtOO-2" edge="1">
                    <mxGeometry width="50" height="50" relative="1" as="geometry">
                        <mxPoint x="390" y="420" as="sourcePoint"/>
                        <mxPoint x="440" y="370" as="targetPoint"/>
                    </mxGeometry>
                </mxCell>
                <mxCell id="XBtnYQ4Ljbl5P8EdUtOO-7" value="" style="endArrow=classic;html=1;" parent="1" source="XBtnYQ4Ljbl5P8EdUtOO-2" target="12" edge="1">
                    <mxGeometry width="50" height="50" relative="1" as="geometry">
                        <mxPoint x="250" y="530" as="sourcePoint"/>
                        <mxPoint x="470" y="560" as="targetPoint"/>
                    </mxGeometry>
                </mxCell>
                <mxCell id="XBtnYQ4Ljbl5P8EdUtOO-8" value="" style="endArrow=classic;html=1;exitX=1;exitY=0.25;exitDx=0;exitDy=0;entryX=0;entryY=0.5;entryDx=0;entryDy=0;" parent="1" source="XBtnYQ4Ljbl5P8EdUtOO-2" target="XBtnYQ4Ljbl5P8EdUtOO-4" edge="1">
                    <mxGeometry width="50" height="50" relative="1" as="geometry">
                        <mxPoint x="390" y="420" as="sourcePoint"/>
                        <mxPoint x="440" y="370" as="targetPoint"/>
                    </mxGeometry>
                </mxCell>
                <mxCell id="XBtnYQ4Ljbl5P8EdUtOO-10" value="" style="endArrow=classic;html=1;entryX=0.5;entryY=1;entryDx=0;entryDy=0;exitX=0.5;exitY=0;exitDx=0;exitDy=0;" parent="1" source="12" target="XBtnYQ4Ljbl5P8EdUtOO-4" edge="1">
                    <mxGeometry width="50" height="50" relative="1" as="geometry">
                        <mxPoint x="550" y="490" as="sourcePoint"/>
                        <mxPoint x="630" y="480" as="targetPoint"/>
                    </mxGeometry>
                </mxCell>
                <mxCell id="XBtnYQ4Ljbl5P8EdUtOO-11" value="&lt;h1&gt;Machine à États Finis&lt;br&gt;&lt;/h1&gt;&lt;p&gt;Diagramme simplifié régissant l'IA dans le jeu &quot;La bataille Brestoise&quot;.&lt;/p&gt;" style="text;html=1;strokeColor=none;fillColor=none;spacing=5;spacingTop=-20;whiteSpace=wrap;overflow=hidden;rounded=0;" parent="1" vertex="1">
                    <mxGeometry x="280" y="80" width="295" height="120" as="geometry"/>
                </mxCell>
                <mxCell id="XBtnYQ4Ljbl5P8EdUtOO-12" value="Si une entité de niveau inférieur est à portée&lt;br&gt;-OU-&lt;br&gt;Si une entité de même niveau mais de vie inférieure est à portée" style="text;html=1;strokeColor=none;fillColor=none;align=center;verticalAlign=middle;whiteSpace=wrap;rounded=0;" parent="1" vertex="1">
                    <mxGeometry x="120" y="330" width="130" height="130" as="geometry"/>
                </mxCell>
                <mxCell id="2" value="Si l'entité est hors de porée" style="text;html=1;strokeColor=none;fillColor=none;align=center;verticalAlign=middle;whiteSpace=wrap;rounded=0;" vertex="1" parent="1">
                    <mxGeometry x="440" y="260" width="90" height="40" as="geometry"/>
                </mxCell>
                <mxCell id="8" value="" style="endArrow=classic;html=1;exitX=0.5;exitY=0;exitDx=0;exitDy=0;entryX=1;entryY=0.5;entryDx=0;entryDy=0;" edge="1" parent="1" source="XBtnYQ4Ljbl5P8EdUtOO-4" target="XBtnYQ4Ljbl5P8EdUtOO-1">
                    <mxGeometry width="50" height="50" relative="1" as="geometry">
                        <mxPoint x="490" y="470" as="sourcePoint"/>
                        <mxPoint x="540" y="420" as="targetPoint"/>
                    </mxGeometry>
                </mxCell>
                <mxCell id="9" value="Si la cible est à portée" style="text;html=1;strokeColor=none;fillColor=none;align=center;verticalAlign=middle;whiteSpace=wrap;rounded=0;" vertex="1" parent="1">
                    <mxGeometry x="310" y="555" width="90" height="45" as="geometry"/>
                </mxCell>
                <mxCell id="10" value="Si la vie de l'entité est trop faible" style="text;html=1;strokeColor=none;fillColor=none;align=center;verticalAlign=middle;whiteSpace=wrap;rounded=0;" vertex="1" parent="1">
                    <mxGeometry x="560" y="450" width="90" height="45" as="geometry"/>
                </mxCell>
                <mxCell id="11" value="Si la vie de l'entité est trop faible" style="text;html=1;strokeColor=none;fillColor=none;align=center;verticalAlign=middle;whiteSpace=wrap;rounded=0;" vertex="1" parent="1">
                    <mxGeometry x="324" y="405" width="90" height="45" as="geometry"/>
                </mxCell>
                <mxCell id="12" value="" style="rounded=0;whiteSpace=wrap;html=1;dashed=1;" vertex="1" parent="1">
                    <mxGeometry x="430" y="520" width="240" height="72.5" as="geometry"/>
                </mxCell>
                <mxCell id="14" value="ATTACK" style="rounded=0;whiteSpace=wrap;html=1;" vertex="1" parent="1">
                    <mxGeometry x="450" y="550" width="70" height="20" as="geometry"/>
                </mxCell>
                <mxCell id="15" value="WAIT FOR ATTACK" style="rounded=0;whiteSpace=wrap;html=1;" vertex="1" parent="1">
                    <mxGeometry x="575" y="542.5" width="80" height="35" as="geometry"/>
                </mxCell>
                <mxCell id="18" value="" style="endArrow=classic;html=1;entryX=0;entryY=0.5;entryDx=0;entryDy=0;exitX=1;exitY=0.5;exitDx=0;exitDy=0;startArrow=classic;startFill=1;" edge="1" parent="1" source="14" target="15">
                    <mxGeometry width="50" height="50" relative="1" as="geometry">
                        <mxPoint x="440" y="545" as="sourcePoint"/>
                        <mxPoint x="490" y="495" as="targetPoint"/>
                    </mxGeometry>
                </mxCell>
                <mxCell id="19" value="3s" style="text;html=1;strokeColor=none;fillColor=none;align=center;verticalAlign=middle;whiteSpace=wrap;rounded=0;" vertex="1" parent="1">
                    <mxGeometry x="530" y="535" width="40" height="20" as="geometry"/>
                </mxCell>
            </root>
        </mxGraphModel>
    </diagram>
</mxfile>